<svg xmlns="http://www.w3.org/2000/svg" width="193" height="193" fill="none"><circle cx="96.5" cy="96.5" r="94" stroke="#fff" stroke-width="5"/><rect x="13.5" y="72.5" width="168" height="56" rx="8.5" stroke="#fff" stroke-width="5"/><path d="M25.969 112l8.687-27.813h3.813l-.75 5.532L28.875 118h-3.719l.813-6zm-5.844-27.813l7.406 28.125.532 5.688h-3.907l-9.812-33.813h5.781zm26.656 27.907l7.063-27.906h5.75L49.78 118h-3.875l.875-5.906zm-7.468-27.906l8.5 27.343.968 6.469h-3.687L36 89.656l-.75-5.469h4.063zM85.612 112L94.3 84.187h3.813l-.75 5.532L88.52 118h-3.719l.813-6zM79.77 84.187l7.406 28.125.531 5.688h-3.906L73.99 84.187h5.781zm26.656 27.907l7.063-27.906h5.75L109.426 118h-3.875l.875-5.906zm-7.469-27.906l8.501 27.343.968 6.469h-3.687l-9.094-28.344-.75-5.469h4.063zM145.26 112l8.687-27.813h3.813l-.75 5.532L148.165 118h-3.719l.813-6zm-5.844-27.813l7.406 28.125.532 5.688h-3.907l-9.812-33.813h5.781zm26.656 27.907l7.063-27.906h5.75L169.071 118h-3.875l.875-5.906zm-7.468-27.906l8.5 27.343.968 6.469h-3.687l-9.094-28.344-.75-5.469h4.063z" fill="#fff"/></svg>