<svg xmlns="http://www.w3.org/2000/svg" width="682.667" height="682.667" viewBox="0 0 512 512"><path d="M232.1 1c-49.7 4.8-99 25.1-137.6 56.5-11.4 9.2-29.4 27.4-38.4 38.7-22.9 28.7-41.7 67.5-49.5 102.3-4.9 21.8-6 32.5-6 57.5s1.1 35.7 6 57.5c7.9 35.5 27.2 74.9 50.9 104 9.2 11.4 27.4 29.4 38.7 38.4 28.7 22.9 67.5 41.7 102.3 49.5 21.8 4.9 32.5 6 57.5 6s35.7-1.1 57.5-6c26.1-5.8 60.3-20.4 82.8-35.3 38.9-25.9 68.8-59.9 89.3-101.6 12.5-25.5 19.6-48.4 24.1-77.5 2.4-16.1 2.4-53.9 0-70-4.5-29.1-11.6-52-24.1-77.5-13.4-27.2-28.3-48-49.8-69.2-21.1-20.9-40.4-34.6-67.3-47.8-25.2-12.4-48.6-19.7-76.5-24C279.4.6 245.2-.2 232.1 1zm45.7 155c7.5 3.4 7.6 3.8 8.2 48 .5 37.3.6 38.6 2.7 42.6 2.4 4.4 3.8 5.4 8.2 5.4 3.7 0 5.9-1.8 13.3-10.7 12.9-15.6 24-34.2 34.2-57.8 7.2-16.7 7.8-17.6 11.6-20.3 3.3-2.2 3.7-2.2 36-2.2 35.8 0 40.4.6 43 5.5 1.8 3.4.2 10.1-4.8 20.9-4.7 9.8-9.6 17-32.4 47.8-9.7 13-18.4 25.8-19.3 28.3-3.3 8.4-2.2 10 22.9 35.5 29.1 29.4 36.5 40.6 33.7 50-.6 2-2.2 4.7-3.7 6.1l-2.6 2.4-30.9.3c-45.9.4-44.3 1.1-73.7-30.5-16.4-17.7-21.9-20.4-28.7-14.1-4.6 4.3-7.2 11.9-8.6 25-2 18.3-3.4 19.3-26.9 19.2-30.9-.1-54.3-7.3-77.5-23.8-20.7-14.9-45.2-45.4-67.8-84.7-14.1-24.5-37.4-72.1-38.4-78.5-.7-4.4 1.1-7.1 5.5-8.4 4.8-1.3 55.5-1.3 60.3 0 5.4 1.5 8.4 5.4 14.4 18.9 10.1 22.8 24.3 47.5 34.7 60.5 5.5 6.8 11.9 11.6 15.5 11.6 3 0 7-4.2 8.3-8.9 2.9-9.8 3.9-36.6 2-52.1-1.8-14.7-6.3-21.2-16.7-23.9-2.8-.8-4.3-1.7-4.3-2.8 0-2.3 7.5-9.1 11.3-10.2 1.7-.5 17.4-1 34.7-1 29.2-.1 31.8.1 35.8 1.9z" fill="#4287d6"/></svg>